<svg xmlns="http://www.w3.org/2000/svg" xml:space="preserve" style="enable-background:new 0 0 115.28 122.88" viewBox="0 0 115.28 122.88">
  <path d="M25.38 57h64.88V37.34H69.59c-2.17 0-5.19-1.17-6.62-2.6-1.43-1.43-2.3-4.01-2.3-6.17V7.64H8.15c-.18 0-.32.09-.41.18-.15.1-.19.23-.19.42v106.45c0 .14.09.32.18.41.09.14.28.18.41.18h81.51c.18 0 .17-.09.27-.18.14-.09.33-.28.33-.41v-11.16H25.38c-4.14 0-7.56-3.4-7.56-7.56V64.55c0-4.15 3.4-7.55 7.56-7.55zm6.98 10.32h7.93v25.56h-7.93V67.32zm13.47 17.1 7.5-.47c.16 1.21.49 2.14.99 2.77.82 1.03 1.98 1.55 3.49 1.55 1.12 0 1.99-.26 2.6-.79.61-.53.92-1.14.92-1.84 0-.66-.29-1.26-.86-1.78-.58-.52-1.92-1.01-4.03-1.48-3.46-.77-5.93-1.81-7.4-3.1-1.49-1.29-2.23-2.93-2.23-4.93 0-1.31.38-2.55 1.14-3.71.76-1.17 1.9-2.09 3.43-2.75 1.53-.67 3.62-1 6.28-1 3.27 0 5.75.61 7.47 1.83 1.71 1.21 2.73 3.15 3.06 5.8l-7.43.44c-.2-1.16-.61-2.01-1.24-2.53-.64-.53-1.51-.79-2.62-.79-.92 0-1.61.2-2.08.58-.46.39-.7.86-.7 1.42 0 .4.19.77.57 1.1.36.34 1.24.65 2.64.94 3.45.74 5.92 1.5 7.41 2.26 1.49.76 2.58 1.7 3.26 2.83.68 1.12 1.02 2.39 1.02 3.78 0 1.64-.45 3.15-1.36 4.53-.91 1.38-2.17 2.43-3.8 3.15-1.62.71-3.67 1.07-6.15 1.07-4.34 0-7.35-.84-9.03-2.51-1.68-1.67-2.63-3.79-2.85-6.37zm27.4-4.3c0-4.17 1.16-7.42 3.49-9.74 2.33-2.33 5.56-3.49 9.72-3.49 4.25 0 7.53 1.14 9.84 3.42 2.3 2.28 3.45 5.49 3.45 9.6 0 2.99-.5 5.43-1.51 7.34-1.01 1.91-2.46 3.4-4.36 4.46-1.9 1.06-4.27 1.59-7.11 1.59-2.88 0-5.27-.46-7.16-1.37-1.89-.92-3.42-2.37-4.59-4.36-1.18-1.98-1.77-4.47-1.77-7.45zm7.89.01c0 2.58.48 4.43 1.44 5.56.96 1.12 2.27 1.69 3.93 1.69 1.7 0 3.02-.55 3.94-1.65.93-1.11 1.4-3.08 1.4-5.94 0-2.4-.49-4.16-1.46-5.27-.98-1.11-2.29-1.67-3.96-1.67-1.59 0-2.88.57-3.84 1.69-.97 1.12-1.45 2.99-1.45 5.59zM97.79 57h9.93c4.16 0 7.56 3.41 7.56 7.56v31.42c0 4.15-3.41 7.56-7.56 7.56h-9.93v13.55c0 1.61-.65 3.04-1.7 4.1-1.06 1.06-2.49 1.7-4.1 1.7H5.81c-1.61 0-3.04-.64-4.1-1.7-1.06-1.06-1.7-2.49-1.7-4.1V5.85c0-1.61.65-3.04 1.7-4.1C2.77.69 4.24.05 5.81.05h58.72c.13-.05.27-.05.41-.05.64 0 1.29.28 1.75.69h.09c.09.05.14.09.23.18L97 31.23c.51.51.88 1.2.88 1.98 0 .23-.05.41-.09.65V57zM67.52 27.97V8.94l21.43 21.7H70.19c-.74 0-1.38-.32-1.89-.78-.46-.46-.78-1.15-.78-1.89z" style="fill-rule:evenodd;clip-rule:evenodd"/>
</svg>