<svg xmlns="http://www.w3.org/2000/svg" xml:space="preserve" style="enable-background:new 0 0 122.88 92.44" viewBox="0 0 122.88 92.44">
  <path d="M23.3 0h76.28c6.41 0 12.23 2.63 16.45 6.84 4.22 4.22 6.85 10.05 6.85 16.46v45.84c0 6.38-2.63 12.21-6.85 16.44l-.01.01c-4.24 4.23-10.06 6.85-16.44 6.85H23.3c-6.4 0-12.23-2.62-16.46-6.85C2.62 81.37 0 75.55 0 69.14V23.3c0-6.41 2.62-12.24 6.84-16.46C11.06 2.62 16.89 0 23.3 0z"/>
    <path d="M22.24 46.25c0-6.86 1.75-12.2 5.26-16.02 3.51-3.83 8.4-5.73 14.66-5.73 6.42 0 11.37 1.88 14.84 5.63 3.47 3.76 5.21 9.02 5.21 15.78 0 4.91-.75 8.93-2.27 12.07-1.52 3.14-3.72 5.59-6.58 7.34-2.87 1.75-6.45 2.62-10.73 2.62-4.35 0-7.95-.75-10.8-2.26-2.85-1.52-5.16-3.9-6.93-7.17-1.77-3.26-2.66-7.35-2.66-12.26zm11.91.03c0 4.24.73 7.29 2.17 9.14 1.45 1.85 3.43 2.78 5.93 2.78 2.56 0 4.55-.91 5.95-2.72 1.41-1.82 2.11-5.07 2.11-9.78 0-3.95-.74-6.84-2.2-8.66-1.47-1.83-3.46-2.74-5.97-2.74-2.41 0-4.35.93-5.8 2.78-1.47 1.85-2.19 4.92-2.19 9.2zm31.53 7.05 11.31-.77c.24 2 .74 3.52 1.5 4.56 1.23 1.69 2.98 2.54 5.26 2.54 1.7 0 3.01-.43 3.92-1.3.92-.87 1.38-1.88 1.38-3.02 0-1.08-.43-2.06-1.3-2.92-.87-.86-2.9-1.66-6.09-2.44-5.22-1.27-8.94-2.98-11.17-5.1-2.25-2.11-3.37-4.82-3.37-8.1 0-2.15.57-4.19 1.72-6.11 1.15-1.93 2.87-3.43 5.18-4.53 2.31-1.1 5.47-1.64 9.48-1.64 4.93 0 8.68 1 11.27 3s4.12 5.18 4.62 9.54l-11.19.72c-.3-1.91-.93-3.3-1.88-4.16-.96-.87-2.28-1.3-3.96-1.3-1.38 0-2.43.32-3.13.96-.7.64-1.05 1.42-1.05 2.34 0 .67.29 1.26.85 1.8.55.56 1.88 1.07 3.98 1.55 5.21 1.22 8.93 2.46 11.18 3.72 2.25 1.25 3.9 2.8 4.92 4.66 1.02 1.85 1.53 3.92 1.53 6.22 0 2.69-.68 5.18-2.05 7.46-1.37 2.27-3.28 4-5.74 5.17-2.45 1.18-5.54 1.76-9.27 1.76-6.55 0-11.1-1.38-13.62-4.13-2.52-2.75-3.95-6.24-4.28-10.48z" style="fill:#fff"/>
</svg>